<mxfile host="app.diagrams.net" modified="2023-07-09T11:11:42.351Z" agent="Mozilla/5.0 (Windows NT 10.0; Win64; x64; rv:109.0) Gecko/20100101 Firefox/115.0" etag="xVTeP67bKvzyqjUNjtNP" version="21.6.1" type="github">
  <diagram name="Page-1" id="2YBvvXClWsGukQMizWep">
    <mxGraphModel dx="2284" dy="1882" grid="1" gridSize="10" guides="1" tooltips="1" connect="1" arrows="1" fold="1" page="1" pageScale="1" pageWidth="850" pageHeight="1100" math="0" shadow="0">
      <root>
        <mxCell id="0" />
        <mxCell id="1" parent="0" />
        <mxCell id="TxTRRUYlJgVRlyI4c2Kr-11" value="&lt;div&gt;LOGIN&lt;/div&gt;" style="swimlane;childLayout=stackLayout;resizeParent=1;resizeParentMax=0;startSize=20;html=1;sketch=1;curveFitting=1;jiggle=2;fillColor=#d5e8d4;strokeColor=#82b366;swimlaneFillColor=default;" parent="1" vertex="1">
          <mxGeometry x="-60" y="-160" width="1415" height="540" as="geometry" />
        </mxCell>
        <mxCell id="TxTRRUYlJgVRlyI4c2Kr-12" value="&lt;div&gt;USER&lt;/div&gt;" style="swimlane;startSize=20;html=1;sketch=1;curveFitting=1;jiggle=2;swimlaneFillColor=default;" parent="TxTRRUYlJgVRlyI4c2Kr-11" vertex="1">
          <mxGeometry y="20" width="220" height="520" as="geometry" />
        </mxCell>
        <mxCell id="TxTRRUYlJgVRlyI4c2Kr-1" value="Actor" style="shape=umlActor;verticalLabelPosition=bottom;verticalAlign=top;html=1;outlineConnect=0;sketch=1;curveFitting=1;jiggle=2;swimlaneFillColor=default;" parent="TxTRRUYlJgVRlyI4c2Kr-12" vertex="1">
          <mxGeometry x="10" y="40" width="50" height="90" as="geometry" />
        </mxCell>
        <mxCell id="TxTRRUYlJgVRlyI4c2Kr-2" value="&lt;div&gt;POST_LOGIN&lt;/div&gt;" style="shape=step;perimeter=stepPerimeter;whiteSpace=wrap;html=1;fixedSize=1;sketch=1;curveFitting=1;jiggle=2;swimlaneFillColor=default;" parent="TxTRRUYlJgVRlyI4c2Kr-12" vertex="1">
          <mxGeometry x="80" y="60" width="120" height="50" as="geometry" />
        </mxCell>
        <mxCell id="TxTRRUYlJgVRlyI4c2Kr-27" value="&lt;div align=&quot;left&quot;&gt;&lt;b&gt;ResponseData{&lt;/b&gt;&lt;/div&gt;&lt;div align=&quot;left&quot;&gt;&lt;span style=&quot;white-space: pre;&quot;&gt;&#x9;&lt;/span&gt;UserName,&lt;/div&gt;&lt;div align=&quot;left&quot;&gt;&lt;span style=&quot;white-space: pre;&quot;&gt;&#x9;&lt;/span&gt;PendingTasks,&lt;/div&gt;&lt;div align=&quot;left&quot;&gt;&lt;span style=&quot;white-space: pre;&quot;&gt;&#x9;&lt;/span&gt;Notifications,&lt;/div&gt;&lt;div align=&quot;left&quot;&gt;&lt;span style=&quot;white-space: pre;&quot;&gt;&#x9;&lt;/span&gt;&lt;b&gt;ProjectStructure[]{&lt;/b&gt;&lt;/div&gt;&lt;div align=&quot;left&quot;&gt;&lt;span style=&quot;white-space: pre;&quot;&gt;&#x9;&lt;/span&gt;&lt;span style=&quot;white-space: pre;&quot;&gt;&#x9;&lt;/span&gt;projectID,&lt;/div&gt;&lt;div align=&quot;left&quot;&gt;&lt;span style=&quot;white-space: pre;&quot;&gt;&#x9;&lt;/span&gt;&lt;span style=&quot;white-space: pre;&quot;&gt;&#x9;&lt;/span&gt;projectName&lt;/div&gt;&lt;div align=&quot;left&quot;&gt;&lt;span style=&quot;white-space: pre;&quot;&gt;&#x9;&lt;/span&gt;&lt;span style=&quot;white-space: pre;&quot;&gt;&#x9;&lt;/span&gt;hasNotes,&lt;/div&gt;&lt;div align=&quot;left&quot;&gt;&lt;span style=&quot;white-space: pre;&quot;&gt;&#x9;&lt;/span&gt;&lt;span style=&quot;white-space: pre;&quot;&gt;&#x9;&lt;/span&gt;hasPendingTasks,&lt;/div&gt;&lt;div align=&quot;left&quot;&gt;&lt;span style=&quot;white-space: pre;&quot;&gt;&#x9;&lt;/span&gt;&lt;span style=&quot;white-space: pre;&quot;&gt;&#x9;&lt;/span&gt;TrackerData&lt;br&gt;&lt;/div&gt;&lt;div align=&quot;left&quot;&gt;&lt;span style=&quot;white-space: pre;&quot;&gt;&#x9;&lt;/span&gt;&lt;b&gt;}&lt;/b&gt;&lt;/div&gt;&lt;div align=&quot;left&quot;&gt;&lt;span style=&quot;white-space: pre;&quot;&gt;&#x9;&lt;/span&gt;Favourites&lt;/div&gt;&lt;div align=&quot;left&quot;&gt;&lt;span style=&quot;white-space: pre;&quot;&gt;&#x9;&lt;/span&gt;Overview&lt;br&gt;&lt;/div&gt;&lt;div align=&quot;left&quot;&gt;&lt;b&gt;}&lt;/b&gt;&lt;br&gt;&lt;/div&gt;" style="shape=note;size=20;whiteSpace=wrap;html=1;sketch=1;jiggle=2;curveFitting=1;strokeColor=default;fontFamily=Helvetica;fontSize=12;fontColor=default;fillColor=default;align=left;perimeterSpacing=8;spacingLeft=10;" parent="TxTRRUYlJgVRlyI4c2Kr-12" vertex="1">
          <mxGeometry x="10" y="270" width="190" height="230" as="geometry" />
        </mxCell>
        <mxCell id="TxTRRUYlJgVRlyI4c2Kr-28" value="" style="verticalLabelPosition=bottom;verticalAlign=top;html=1;strokeWidth=2;shape=mxgraph.arrows2.arrow;dy=0.6;dx=40;notch=0;sketch=1;jiggle=2;curveFitting=1;strokeColor=#6c8ebf;fontFamily=Helvetica;fontSize=12;fillColor=#dae8fc;rotation=-180;" parent="TxTRRUYlJgVRlyI4c2Kr-12" vertex="1">
          <mxGeometry x="170" y="310" width="100" height="70" as="geometry" />
        </mxCell>
        <mxCell id="TxTRRUYlJgVRlyI4c2Kr-13" value="&lt;div&gt;CONTROLLER&lt;/div&gt;" style="swimlane;startSize=20;html=1;fillColor=#f8cecc;strokeColor=#b85450;sketch=1;curveFitting=1;jiggle=2;swimlaneFillColor=#ffd5d5;" parent="TxTRRUYlJgVRlyI4c2Kr-11" vertex="1">
          <mxGeometry x="220" y="20" width="230" height="520" as="geometry" />
        </mxCell>
        <mxCell id="TxTRRUYlJgVRlyI4c2Kr-3" value="AuthController" style="shape=module;align=left;spacingLeft=20;align=center;verticalAlign=top;whiteSpace=wrap;html=1;sketch=1;curveFitting=1;jiggle=2;swimlaneFillColor=default;" parent="TxTRRUYlJgVRlyI4c2Kr-13" vertex="1">
          <mxGeometry x="15" y="30" width="200" height="40" as="geometry" />
        </mxCell>
        <mxCell id="TxTRRUYlJgVRlyI4c2Kr-24" value="&lt;div&gt;getDashboardUserData(&lt;/div&gt;&lt;div&gt;&amp;nbsp;userID,localdate)&lt;br&gt;&lt;/div&gt;" style="shape=parallelogram;perimeter=parallelogramPerimeter;whiteSpace=wrap;html=1;fixedSize=1;sketch=1;jiggle=2;curveFitting=1;strokeColor=default;fontFamily=Helvetica;fontSize=12;fontColor=default;fillColor=default;" parent="TxTRRUYlJgVRlyI4c2Kr-13" vertex="1">
          <mxGeometry x="20" y="95" width="190" height="60" as="geometry" />
        </mxCell>
        <mxCell id="TxTRRUYlJgVRlyI4c2Kr-16" value="MAIN SERVICE" style="swimlane;startSize=20;html=1;sketch=1;curveFitting=1;jiggle=2;swimlaneFillColor=#FFFFCC;fillColor=#fff2cc;strokeColor=#d6b656;" parent="TxTRRUYlJgVRlyI4c2Kr-11" vertex="1">
          <mxGeometry x="450" y="20" width="220" height="520" as="geometry" />
        </mxCell>
        <mxCell id="TxTRRUYlJgVRlyI4c2Kr-4" value="&lt;div&gt;AuthService&lt;/div&gt;" style="shape=module;align=left;spacingLeft=20;align=center;verticalAlign=top;whiteSpace=wrap;html=1;sketch=1;curveFitting=1;jiggle=2;swimlaneFillColor=default;" parent="TxTRRUYlJgVRlyI4c2Kr-16" vertex="1">
          <mxGeometry x="10" y="25" width="200" height="50" as="geometry" />
        </mxCell>
        <mxCell id="TxTRRUYlJgVRlyI4c2Kr-26" value="&lt;div&gt;getDashboardUserData(&lt;/div&gt;&lt;div&gt;&amp;nbsp;userID,localdate)&lt;br&gt;&lt;/div&gt;" style="shape=parallelogram;perimeter=parallelogramPerimeter;whiteSpace=wrap;html=1;fixedSize=1;sketch=1;jiggle=2;curveFitting=1;strokeColor=default;fontFamily=Helvetica;fontSize=12;fontColor=default;fillColor=default;" parent="TxTRRUYlJgVRlyI4c2Kr-16" vertex="1">
          <mxGeometry x="15" y="95" width="190" height="60" as="geometry" />
        </mxCell>
        <mxCell id="TxTRRUYlJgVRlyI4c2Kr-17" value="&lt;blockquote&gt;&lt;blockquote&gt;&lt;blockquote&gt;User Service&lt;br&gt;&lt;/blockquote&gt;&lt;/blockquote&gt;&lt;/blockquote&gt;" style="swimlane;startSize=20;html=1;sketch=1;curveFitting=1;jiggle=2;swimlaneFillColor=#CCFFFF;fillColor=#dae8fc;strokeColor=#6c8ebf;" parent="TxTRRUYlJgVRlyI4c2Kr-11" vertex="1">
          <mxGeometry x="670" y="20" width="160" height="520" as="geometry" />
        </mxCell>
        <mxCell id="TxTRRUYlJgVRlyI4c2Kr-5" value="&lt;div&gt;User&lt;/div&gt;&lt;div&gt;Service&lt;/div&gt;" style="shape=module;align=left;spacingLeft=20;align=center;verticalAlign=top;whiteSpace=wrap;html=1;sketch=1;curveFitting=1;jiggle=2;swimlaneFillColor=default;" parent="TxTRRUYlJgVRlyI4c2Kr-17" vertex="1">
          <mxGeometry x="5" y="25" width="100" height="50" as="geometry" />
        </mxCell>
        <mxCell id="TxTRRUYlJgVRlyI4c2Kr-25" value="getUser" style="shape=parallelogram;perimeter=parallelogramPerimeter;whiteSpace=wrap;html=1;fixedSize=1;sketch=1;jiggle=2;curveFitting=1;strokeColor=default;fontFamily=Helvetica;fontSize=12;fontColor=default;fillColor=default;" parent="TxTRRUYlJgVRlyI4c2Kr-17" vertex="1">
          <mxGeometry x="30" y="100" width="95" height="60" as="geometry" />
        </mxCell>
        <mxCell id="TxTRRUYlJgVRlyI4c2Kr-31" value="&lt;font style=&quot;font-size: 8px;&quot;&gt;search by userID&lt;/font&gt;" style="html=1;verticalAlign=bottom;endArrow=block;edgeStyle=elbowEdgeStyle;elbow=horizontal;curved=0;rounded=0;fontFamily=Helvetica;fontSize=12;fontColor=default;" parent="TxTRRUYlJgVRlyI4c2Kr-17" edge="1">
          <mxGeometry width="80" relative="1" as="geometry">
            <mxPoint x="-40" y="110" as="sourcePoint" />
            <mxPoint x="40" y="110" as="targetPoint" />
          </mxGeometry>
        </mxCell>
        <mxCell id="TxTRRUYlJgVRlyI4c2Kr-32" value="&lt;div style=&quot;font-size: 8px;&quot; align=&quot;left&quot;&gt;&lt;font style=&quot;font-size: 8px;&quot;&gt;response= {&lt;br&gt;&lt;/font&gt;&lt;/div&gt;&lt;div style=&quot;font-size: 8px;&quot; align=&quot;left&quot;&gt;&lt;font style=&quot;font-size: 8px;&quot;&gt;&lt;span style=&quot;white-space: pre;&quot;&gt;&#x9;&lt;/span&gt;UserName,&amp;nbsp;&amp;nbsp;&amp;nbsp; &lt;br&gt;&lt;/font&gt;&lt;/div&gt;&lt;div style=&quot;font-size: 8px;&quot; align=&quot;left&quot;&gt;&lt;font style=&quot;font-size: 8px;&quot;&gt;&lt;span style=&quot;white-space: pre;&quot;&gt;&#x9;&lt;/span&gt;UIConfig,&amp;nbsp;&amp;nbsp;&amp;nbsp; &lt;br&gt;&lt;/font&gt;&lt;/div&gt;&lt;div style=&quot;font-size: 8px;&quot; align=&quot;left&quot;&gt;&lt;font style=&quot;font-size: 8px;&quot;&gt;&lt;span style=&quot;white-space: pre;&quot;&gt;&#x9;&lt;/span&gt;Favourites&amp;nbsp;&amp;nbsp;&amp;nbsp; &lt;br&gt;&lt;/font&gt;&lt;div&gt;&lt;font style=&quot;font-size: 8px;&quot;&gt;}&lt;font style=&quot;font-size: 8px;&quot;&gt;&lt;br&gt;&lt;/font&gt;&lt;/font&gt;&lt;/div&gt;&lt;/div&gt;" style="html=1;verticalAlign=bottom;endArrow=open;dashed=1;endSize=8;edgeStyle=elbowEdgeStyle;elbow=vertical;curved=0;rounded=0;fontFamily=Helvetica;fontSize=12;fontColor=default;align=left;" parent="TxTRRUYlJgVRlyI4c2Kr-17" edge="1">
          <mxGeometry x="-0.0014" y="61" relative="1" as="geometry">
            <mxPoint x="50" y="139" as="sourcePoint" />
            <mxPoint x="-29.94444444444457" y="138.83333333333348" as="targetPoint" />
            <mxPoint as="offset" />
          </mxGeometry>
        </mxCell>
        <mxCell id="TxTRRUYlJgVRlyI4c2Kr-22" value="Project Service" style="swimlane;startSize=20;html=1;sketch=1;curveFitting=1;jiggle=2;swimlaneFillColor=#CCFFFF;fillColor=#dae8fc;strokeColor=#6c8ebf;" parent="TxTRRUYlJgVRlyI4c2Kr-11" vertex="1">
          <mxGeometry x="830" y="20" width="145" height="520" as="geometry" />
        </mxCell>
        <mxCell id="TxTRRUYlJgVRlyI4c2Kr-6" value="&lt;div&gt;Project&lt;br&gt;&lt;/div&gt;&lt;div&gt;Service&lt;/div&gt;" style="shape=module;align=left;spacingLeft=20;align=center;verticalAlign=top;whiteSpace=wrap;html=1;sketch=1;curveFitting=1;jiggle=2;swimlaneFillColor=default;" parent="TxTRRUYlJgVRlyI4c2Kr-22" vertex="1">
          <mxGeometry x="5" y="25" width="100" height="50" as="geometry" />
        </mxCell>
        <mxCell id="TxTRRUYlJgVRlyI4c2Kr-34" value="&lt;div&gt;&lt;b&gt;&lt;font style=&quot;font-size: 9px;&quot;&gt;GenerateProjectStructure&lt;/font&gt;&lt;/b&gt;&lt;/div&gt;&lt;div&gt;&lt;br&gt;&lt;/div&gt;&lt;div style=&quot;font-size: 9px; line-height: 100%;&quot;&gt;&amp;gt;getAllUserProjectsOrdered ByHolderId().map()&lt;/div&gt;" style="verticalAlign=top;align=left;spacingTop=8;spacingLeft=2;spacingRight=12;shape=cube;size=10;direction=south;fontStyle=4;html=1;whiteSpace=wrap;sketch=1;jiggle=2;curveFitting=1;strokeColor=default;fontFamily=Helvetica;fontSize=10;fontColor=default;fillColor=default;" parent="TxTRRUYlJgVRlyI4c2Kr-22" vertex="1">
          <mxGeometry x="5" y="110" width="135" height="120" as="geometry" />
        </mxCell>
        <mxCell id="TxTRRUYlJgVRlyI4c2Kr-21" value="Task Service" style="swimlane;startSize=20;html=1;sketch=1;curveFitting=1;jiggle=2;swimlaneFillColor=#CCFFFF;fillColor=#dae8fc;strokeColor=#6c8ebf;" parent="TxTRRUYlJgVRlyI4c2Kr-11" vertex="1">
          <mxGeometry x="975" y="20" width="110" height="520" as="geometry" />
        </mxCell>
        <mxCell id="TxTRRUYlJgVRlyI4c2Kr-7" value="&lt;div&gt;Task&lt;/div&gt;&lt;div&gt;Service&lt;/div&gt;" style="shape=module;align=left;spacingLeft=20;align=center;verticalAlign=top;whiteSpace=wrap;html=1;sketch=1;curveFitting=1;jiggle=2;swimlaneFillColor=default;" parent="TxTRRUYlJgVRlyI4c2Kr-21" vertex="1">
          <mxGeometry x="5" y="25" width="100" height="50" as="geometry" />
        </mxCell>
        <mxCell id="TxTRRUYlJgVRlyI4c2Kr-35" value="" style="shape=parallelogram;perimeter=parallelogramPerimeter;whiteSpace=wrap;html=1;fixedSize=1;sketch=1;jiggle=2;curveFitting=1;strokeColor=default;fontFamily=Helvetica;fontSize=12;fontColor=default;fillColor=default;" parent="TxTRRUYlJgVRlyI4c2Kr-21" vertex="1">
          <mxGeometry x="7.5" y="110" width="95" height="60" as="geometry" />
        </mxCell>
        <mxCell id="TxTRRUYlJgVRlyI4c2Kr-23" value="Note Service" style="swimlane;startSize=20;html=1;sketch=1;curveFitting=1;jiggle=2;swimlaneFillColor=#CCFFFF;fillColor=#dae8fc;strokeColor=#6c8ebf;" parent="TxTRRUYlJgVRlyI4c2Kr-11" vertex="1">
          <mxGeometry x="1085" y="20" width="110" height="520" as="geometry" />
        </mxCell>
        <mxCell id="TxTRRUYlJgVRlyI4c2Kr-8" value="&lt;div&gt;Note&lt;/div&gt;&lt;div&gt;Service&lt;/div&gt;" style="shape=module;align=left;spacingLeft=20;align=center;verticalAlign=top;whiteSpace=wrap;html=1;sketch=1;curveFitting=1;jiggle=2;swimlaneFillColor=default;" parent="TxTRRUYlJgVRlyI4c2Kr-23" vertex="1">
          <mxGeometry x="5" y="25" width="100" height="50" as="geometry" />
        </mxCell>
        <mxCell id="TxTRRUYlJgVRlyI4c2Kr-18" value="Tracker Service" style="swimlane;startSize=20;html=1;sketch=1;curveFitting=1;jiggle=2;swimlaneFillColor=#CCFFFF;fillColor=#dae8fc;strokeColor=#6c8ebf;" parent="TxTRRUYlJgVRlyI4c2Kr-11" vertex="1">
          <mxGeometry x="1195" y="20" width="110" height="520" as="geometry" />
        </mxCell>
        <mxCell id="TxTRRUYlJgVRlyI4c2Kr-9" value="&lt;div&gt;Tracker&lt;/div&gt;&lt;div&gt;Service&lt;/div&gt;" style="shape=module;align=left;spacingLeft=20;align=center;verticalAlign=top;whiteSpace=wrap;html=1;sketch=1;curveFitting=1;jiggle=2;swimlaneFillColor=default;" parent="TxTRRUYlJgVRlyI4c2Kr-18" vertex="1">
          <mxGeometry x="5" y="25" width="100" height="50" as="geometry" />
        </mxCell>
        <mxCell id="TxTRRUYlJgVRlyI4c2Kr-14" value="Tag Service" style="swimlane;startSize=20;html=1;sketch=1;curveFitting=1;jiggle=2;swimlaneFillColor=#CCFFFF;fillColor=#dae8fc;strokeColor=#6c8ebf;" parent="TxTRRUYlJgVRlyI4c2Kr-11" vertex="1">
          <mxGeometry x="1305" y="20" width="110" height="520" as="geometry" />
        </mxCell>
        <mxCell id="TxTRRUYlJgVRlyI4c2Kr-10" value="&lt;div&gt;Tag&lt;/div&gt;&lt;div&gt;Service&lt;/div&gt;" style="shape=module;align=left;spacingLeft=20;align=center;verticalAlign=top;whiteSpace=wrap;html=1;sketch=1;curveFitting=1;jiggle=2;swimlaneFillColor=default;" parent="TxTRRUYlJgVRlyI4c2Kr-14" vertex="1">
          <mxGeometry x="5" y="25" width="100" height="50" as="geometry" />
        </mxCell>
      </root>
    </mxGraphModel>
  </diagram>
</mxfile>
